<?xml version="1.0" encoding="utf-8"?>
<!-- Created by UniConvertor 2.0rc5 (https://sk1project.net/) -->
<svg xmlns="http://www.w3.org/2000/svg" height="256.0px" width="256.0px" version="1.1" xmlns:xlink="http://www.w3.org/1999/xlink" id="bb0fbd58-cdd5-11ed-9b46-0242ac130005">

<g>
	<path style="stroke:#49a293;stroke-width:0.0;stroke-miterlimit:4.0;fill:#2bc5e3;" d="M 128.0,0.0 C 57.3195,0.0 0.0,57.3195 0.0,128.0 L 0.0,128.0 C 0.0,198.6805 57.3195,256.0 128.0,256.0 L 128.0,256.0 C 198.6805,256.0 256.0,198.6805 256.0,128.0 L 256.0,128.0 C 256.0,57.3195 198.6805,0.0 128.0,0.0 L 128.0,0.0 Z" />
	<g>
		<path style="stroke-linejoin:round;stroke:#9c5030;stroke-linecap:round;stroke-miterlimit:4.0;stroke-width:3.84;fill:#4c9ce6;" d="M 121.3333,194.6667 L 141.3333,188.0 128.0,148.0 141.3751,135.2348 168.0,188.0 181.3333,174.6667 174.6667,114.6667 208.3878,60.643 C 210.538,57.4177 210.1128,53.123 207.3718,50.382 L 207.3718,50.382 C 204.6308,47.6409 200.3361,47.2157 197.1107,49.3659 L 141.3333,81.3333 81.3333,81.3333 68.0,94.6667 121.3333,114.6667 108.0,128.0 68.0,121.3333 68.0,141.3333 121.3333,194.6667 Z" />
		<path style="stroke-linejoin:round;stroke:#9c5030;stroke-linecap:round;stroke-miterlimit:4.0;stroke-width:3.84;fill:#362626;" d="M 213.9342,64.3411 L 181.5482,116.2324 187.9577,173.931 C 188.1823,175.9427 187.4792,177.9479 186.0469,179.3802 L 172.7135,192.7135 C 171.1999,194.224 169.0482,194.9336 166.9453,194.582 164.8327,194.2435 163.013,192.9121 162.0495,191.0046 L 139.4746,146.265 135.6628,149.9043 147.6582,185.8906 C 148.8236,189.3835 146.9355,193.1595 143.4427,194.3249 L 123.4427,200.9915 C 122.7428,201.2259 122.0299,201.3366 121.3333,201.3366 118.5404,201.3366 115.9395,199.569 115.0085,196.776 113.8431,193.2832 115.7311,189.5072 119.224,188.3418 L 132.8991,183.7845 121.6751,150.1094 C 120.8581,147.6582 121.5286,144.9596 123.3971,143.1758 L 136.7728,130.4121 C 138.3027,128.957 140.4447,128.3125 142.5085,128.6673 144.5885,129.0254 146.3757,130.347 147.3262,132.2318 L 169.8001,176.7695 174.3542,172.2188 168.0423,115.4023 C 167.8763,113.9115 168.2181,112.4076 169.0124,111.138 L 202.7331,57.1146 C 203.2279,56.3659 203.1497,55.5879 202.6582,55.0964 202.1634,54.6048 201.3919,54.5169 200.8092,54.9141 L 144.6471,87.1178 C 143.638,87.6973 142.4954,88.0 141.3333,88.0 L 84.0938,88.0 80.0345,92.0592 123.6738,108.4232 C 125.7962,109.2207 127.3685,111.0404 127.8503,113.2539 128.3288,115.4707 127.6517,117.7786 126.0469,119.3802 L 112.7135,132.7135 C 111.1966,134.2337 109.0514,134.9336 106.903,134.5755 L 74.6667,129.2044 74.6667,138.5729 88.0,151.9063 89.9531,149.9531 C 92.5573,147.349 96.776,147.349 99.3802,149.9531 101.9844,152.5573 101.9844,156.776 99.3802,159.3802 L 97.4271,161.3333 101.3333,165.2396 103.2865,163.2865 C 105.8906,160.6823 110.1094,160.6823 112.7135,163.2865 115.3177,165.8906 115.3177,170.1094 112.7135,172.7135 L 106.0469,179.3802 C 104.7448,180.6823 103.0391,181.3333 101.3333,181.3333 99.6276,181.3333 97.9219,180.6823 96.6198,179.3802 L 63.2865,146.0469 C 62.0365,144.7969 61.3333,143.1009 61.3333,141.3333 L 61.3333,121.3333 C 61.3333,119.3737 62.196,117.5117 63.6901,116.2454 65.1842,114.9792 67.1634,114.4225 69.097,114.7578 L 105.7116,120.8613 109.2988,117.2741 65.6595,100.9102 C 63.5371,100.1126 61.9648,98.293 61.4831,96.0794 61.0046,93.8626 61.6816,91.5547 63.2865,89.9531 L 76.6198,76.6198 C 77.8698,75.3698 79.5658,74.6667 81.3333,74.6667 L 139.5592,74.6667 193.7975,43.5827 C 199.2565,39.9271 207.1113,40.6986 212.0853,45.6693 217.056,50.64 217.834,58.4948 213.9342,64.3411 Z M 69.9531,189.9531 L 56.6198,203.2865 C 54.0156,205.8906 54.0156,210.1094 56.6198,212.7135 57.9219,214.0156 59.6276,214.6667 61.3333,214.6667 63.0391,214.6667 64.7448,214.0156 66.0469,212.7135 L 79.3802,199.3802 C 81.9844,196.776 81.9844,192.5573 79.3802,189.9531 76.776,187.349 72.5573,187.349 69.9531,189.9531 Z M 61.3333,188.0 C 65.0154,188.0 68.0,185.015 68.0,181.3333 68.0,177.6513 65.0154,174.6667 61.3333,174.6667 57.6513,174.6667 54.6667,177.6513 54.6667,181.3333 54.6667,185.015 57.6513,188.0 61.3333,188.0 Z" />
	</g>
	<g>
		<path style="stroke:#49a293;stroke-width:0.0021;stroke-miterlimit:4.0;fill:#4c9ce6;" d="M 121.3333,194.6667 L 141.3333,188.0 128.0,148.0 141.3751,135.2348 168.0,188.0 181.3333,174.6667 174.6667,114.6667 208.3878,60.643 C 210.538,57.4177 210.1128,53.123 207.3718,50.382 L 207.3718,50.382 C 204.6308,47.6409 200.3361,47.2157 197.1107,49.3659 L 141.3333,81.3333 81.3333,81.3333 68.0,94.6667 121.3333,114.6667 108.0,128.0 68.0,121.3333 68.0,141.3333 121.3333,194.6667 Z" />
		<path style="stroke:#49a293;stroke-width:0.0021;stroke-miterlimit:4.0;fill:#362626;" d="M 213.9342,64.3411 L 181.5482,116.2324 187.9577,173.931 C 188.1823,175.9427 187.4792,177.9479 186.0469,179.3802 L 172.7135,192.7135 C 171.1999,194.224 169.0482,194.9336 166.9453,194.582 164.8327,194.2435 163.013,192.9121 162.0495,191.0046 L 139.4746,146.265 135.6628,149.9043 147.6582,185.8906 C 148.8236,189.3835 146.9355,193.1595 143.4427,194.3249 L 123.4427,200.9915 C 122.7428,201.2259 122.0299,201.3366 121.3333,201.3366 118.5404,201.3366 115.9395,199.569 115.0085,196.776 113.8431,193.2832 115.7311,189.5072 119.224,188.3418 L 132.8991,183.7845 121.6751,150.1094 C 120.8581,147.6582 121.5286,144.9596 123.3971,143.1758 L 136.7728,130.4121 C 138.3027,128.957 140.4447,128.3125 142.5085,128.6673 144.5885,129.0254 146.3757,130.347 147.3262,132.2318 L 169.8001,176.7695 174.3542,172.2188 168.0423,115.4023 C 167.8763,113.9115 168.2181,112.4076 169.0124,111.138 L 202.7331,57.1146 C 203.2279,56.3659 203.1497,55.5879 202.6582,55.0964 202.1634,54.6048 201.3919,54.5169 200.8092,54.9141 L 144.6471,87.1178 C 143.638,87.6973 142.4954,88.0 141.3333,88.0 L 84.0938,88.0 80.0345,92.0592 123.6738,108.4232 C 125.7962,109.2207 127.3685,111.0404 127.8503,113.2539 128.3288,115.4707 127.6517,117.7786 126.0469,119.3802 L 112.7135,132.7135 C 111.1966,134.2337 109.0514,134.9336 106.903,134.5755 L 74.6667,129.2044 74.6667,138.5729 88.0,151.9063 89.9531,149.9531 C 92.5573,147.349 96.776,147.349 99.3802,149.9531 101.9844,152.5573 101.9844,156.776 99.3802,159.3802 L 97.4271,161.3333 101.3333,165.2396 103.2865,163.2865 C 105.8906,160.6823 110.1094,160.6823 112.7135,163.2865 115.3177,165.8906 115.3177,170.1094 112.7135,172.7135 L 106.0469,179.3802 C 104.7448,180.6823 103.0391,181.3333 101.3333,181.3333 99.6276,181.3333 97.9219,180.6823 96.6198,179.3802 L 63.2865,146.0469 C 62.0365,144.7969 61.3333,143.1009 61.3333,141.3333 L 61.3333,121.3333 C 61.3333,119.3737 62.196,117.5117 63.6901,116.2454 65.1842,114.9792 67.1634,114.4225 69.097,114.7578 L 105.7116,120.8613 109.2988,117.2741 65.6595,100.9102 C 63.5371,100.1126 61.9648,98.293 61.4831,96.0794 61.0046,93.8626 61.6816,91.5547 63.2865,89.9531 L 76.6198,76.6198 C 77.8698,75.3698 79.5658,74.6667 81.3333,74.6667 L 139.5592,74.6667 193.7975,43.5827 C 199.2565,39.9271 207.1113,40.6986 212.0853,45.6693 217.056,50.64 217.834,58.4948 213.9342,64.3411 Z M 69.9531,189.9531 L 56.6198,203.2865 C 54.0156,205.8906 54.0156,210.1094 56.6198,212.7135 57.9219,214.0156 59.6276,214.6667 61.3333,214.6667 63.0391,214.6667 64.7448,214.0156 66.0469,212.7135 L 79.3802,199.3802 C 81.9844,196.776 81.9844,192.5573 79.3802,189.9531 76.776,187.349 72.5573,187.349 69.9531,189.9531 Z M 61.3333,188.0 C 65.0154,188.0 68.0,185.015 68.0,181.3333 68.0,177.6513 65.0154,174.6667 61.3333,174.6667 57.6513,174.6667 54.6667,177.6513 54.6667,181.3333 54.6667,185.015 57.6513,188.0 61.3333,188.0 Z" />
	</g>
</g>
</svg>